<?xml version="1.0" standalone="no"?>
<!DOCTYPE svg PUBLIC "-//W3C//DTD SVG 20010904//EN"
 "http://www.w3.org/TR/2001/REC-SVG-20010904/DTD/svg10.dtd">
<svg version="1.0" xmlns="http://www.w3.org/2000/svg"
 width="397.000000pt" height="380.000000pt" viewBox="0 0 397.000000 380.000000"
 preserveAspectRatio="xMidYMid meet">

<g transform="translate(0.000000,380.000000) scale(0.100000,-0.100000)"
fill="#000000" stroke="none">
<path d="M2033 3783 c-12 -2 -34 -18 -48 -35 l-26 -31 3 -221 c2 -205 0 -225
-19 -278 -16 -43 -19 -58 -9 -58 21 0 96 108 138 200 85 183 113 353 65 398
-24 23 -67 33 -104 25z"/>
<path d="M1684 3770 c-41 -13 -126 -98 -153 -153 -12 -24 -31 -81 -42 -128
-20 -76 -21 -102 -16 -279 7 -250 33 -382 148 -742 7 -21 15 -38 19 -38 3 0 4
38 2 84 -9 165 33 354 129 583 74 177 107 304 115 438 7 112 -4 170 -40 211
-18 22 -33 28 -77 30 -30 2 -68 -1 -85 -6z"/>
<path d="M2570 3720 c-18 -18 -20 -31 -18 -93 2 -40 7 -72 13 -71 16 2 57 95
63 142 4 38 2 42 -17 42 -11 0 -30 -9 -41 -20z"/>
<path d="M2264 3705 c-40 -61 -74 -436 -74 -820 0 -495 -27 -1310 -56 -1680
-34 -446 -116 -685 -282 -818 -69 -56 -118 -79 -182 -84 -49 -5 -68 0 -153 35
-135 55 -201 96 -277 173 -77 78 -142 187 -187 316 -56 161 -68 237 -67 438 0
162 3 190 27 279 50 186 136 325 250 401 65 44 87 35 132 -55 38 -75 58 -141
85 -273 l19 -92 -21 -30 c-12 -16 -43 -55 -68 -85 -119 -141 -177 -252 -186
-353 -5 -52 -2 -69 18 -107 28 -54 72 -85 132 -94 97 -15 182 20 263 108 66
72 114 168 143 288 22 93 27 301 10 421 l-10 68 55 92 c80 134 106 217 112
353 6 128 -4 171 -48 209 -51 42 -189 33 -189 -13 0 -10 15 -54 34 -99 60
-141 64 -241 16 -349 -24 -55 -14 -59 -83 30 -63 82 -154 116 -311 116 -172 0
-263 -34 -366 -139 -138 -139 -190 -306 -190 -609 0 -168 9 -247 46 -395 53
-210 124 -337 263 -469 182 -172 347 -235 591 -225 229 10 389 86 531 253 72
85 123 181 168 319 63 193 80 302 108 670 26 341 26 1628 0 1925 -21 239 -32
296 -57 310 -10 6 -55 10 -99 10 -75 0 -82 -2 -97 -25z m-746 -2441 c3 -141
-14 -234 -58 -311 -43 -75 -78 -69 -116 22 -27 66 -22 114 24 209 50 104 119
209 135 203 8 -2 13 -43 15 -123z"/>
<path d="M1200 3674 c-48 -44 -63 -92 -58 -189 2 -55 10 -86 35 -135 38 -77
193 -302 212 -308 11 -4 12 8 6 59 -4 35 -9 163 -10 284 -2 141 -7 231 -14
250 -34 85 -103 100 -171 39z"/>
<path d="M2725 3659 c-52 -30 -86 -75 -107 -142 -17 -59 -20 -87 -16 -205 3
-78 10 -150 18 -167 l12 -30 13 62 c16 74 52 150 136 293 51 86 63 113 63 150
l1 45 -50 2 c-27 2 -59 -2 -70 -8z"/>
<path d="M2923 3509 c-50 -25 -88 -67 -117 -129 -17 -37 -21 -65 -21 -160 0
-140 18 -209 78 -294 56 -79 67 -81 67 -14 0 99 40 201 135 340 79 115 96 225
42 263 -33 23 -132 20 -184 -6z"/>
<path d="M764 3450 c-91 -59 -130 -193 -100 -340 25 -120 67 -192 170 -296
111 -111 205 -177 486 -346 139 -83 236 -148 269 -180 28 -28 51 -46 51 -40 0
20 -99 280 -167 437 -71 165 -154 322 -241 454 -69 106 -239 279 -303 309 -57
28 -124 28 -165 2z"/>
<path d="M3205 3291 c-55 -25 -140 -119 -159 -178 -32 -98 -42 -277 -20 -380
6 -33 29 -28 44 8 7 17 67 101 133 187 125 164 177 255 177 309 0 66 -88 94
-175 54z"/>
<path d="M382 3107 c-17 -18 -22 -36 -22 -73 0 -157 100 -250 349 -323 57 -17
110 -31 117 -31 26 0 14 25 -47 95 -33 39 -85 104 -115 146 -136 192 -223 249
-282 186z"/>
<path d="M3399 3072 c-45 -29 -179 -172 -161 -172 6 0 23 5 38 10 15 6 64 16
108 21 132 18 208 79 178 144 -10 22 -18 25 -65 25 -41 0 -63 -6 -98 -28z"/>
<path d="M1935 3064 c-94 -48 -167 -184 -209 -386 -18 -86 -21 -198 -6 -198 5
0 21 22 35 49 16 32 73 98 160 184 149 148 185 204 185 289 0 37 -5 50 -22 62
-29 20 -104 20 -143 0z"/>
<path d="M2626 3022 c-26 -28 -27 -32 -24 -125 l3 -96 73 67 c65 61 72 72 72
106 0 57 -14 76 -58 76 -29 0 -45 -7 -66 -28z"/>
<path d="M3339 2877 c-53 -15 -89 -39 -145 -99 -66 -69 -91 -118 -154 -304
-33 -97 -77 -208 -97 -246 -45 -85 -147 -193 -223 -237 l-55 -33 68 6 c39 3
118 22 186 45 437 146 722 438 699 718 -5 58 -40 113 -88 138 -41 21 -136 27
-191 12z"/>
<path d="M2706 2819 c-20 -17 -40 -47 -46 -67 -19 -69 -23 -188 -10 -312 19
-187 18 -296 -4 -353 -10 -27 -15 -51 -12 -55 15 -14 100 45 160 109 120 129
183 301 173 469 -5 103 -28 162 -81 208 -32 28 -44 32 -91 32 -46 0 -59 -4
-89 -31z"/>
<path d="M3693 2728 c-4 -7 -11 -47 -14 -88 -3 -41 -10 -83 -14 -92 -12 -29
12 -21 56 19 63 57 89 129 57 161 -16 16 -75 15 -85 0z"/>
<path d="M237 2661 c-43 -9 -81 -35 -111 -75 -32 -42 -30 -173 3 -241 55 -112
202 -211 354 -240 168 -32 310 -15 817 94 52 12 128 24 168 27 39 4 72 10 72
14 0 4 -27 26 -61 50 -183 129 -491 262 -779 337 -118 31 -153 36 -280 39 -80
1 -162 -1 -183 -5z"/>
<path d="M3705 2502 c-52 -32 -177 -193 -161 -209 3 -4 30 1 59 9 28 9 90 24
136 34 99 21 141 49 141 96 0 47 -48 88 -102 88 -24 0 -56 -8 -73 -18z"/>
<path d="M3560 2217 c-36 -12 -119 -55 -185 -96 -323 -199 -428 -240 -610
-241 -114 -1 -98 -10 74 -45 127 -26 146 -27 315 -22 314 10 629 89 697 175
41 53 16 166 -49 217 -32 26 -46 30 -107 32 -51 2 -87 -3 -135 -20z"/>
<path d="M23 2179 c-7 -7 -13 -34 -13 -59 0 -85 47 -120 162 -120 63 0 246 25
256 35 2 2 -21 10 -50 19 -30 8 -94 41 -143 72 -75 48 -99 58 -145 61 -37 3
-59 0 -67 -8z"/>
<path d="M784 1995 c-34 -8 -151 -23 -260 -35 -283 -30 -365 -54 -440 -131
-36 -37 -39 -44 -38 -94 0 -49 4 -59 35 -91 51 -53 79 -64 162 -64 114 0 189
31 335 137 87 64 292 260 292 279 0 16 -6 16 -86 -1z"/>
<path d="M3822 1900 c-71 -68 -68 -75 24 -68 65 6 108 33 112 72 4 35 -14 56
-47 56 -18 -1 -45 -19 -89 -60z"/>
<path d="M2639 1776 c7 -9 19 -16 25 -16 6 0 48 -16 94 -34 102 -43 208 -113
376 -251 71 -58 157 -126 192 -151 167 -119 388 -170 455 -103 24 24 26 106 3
155 -20 41 -114 131 -177 167 -126 74 -343 134 -710 198 -128 21 -241 42 -252
46 -17 5 -18 4 -6 -11z"/>
<path d="M3490 1770 c-52 -9 -117 -21 -145 -25 l-50 -7 70 -20 c39 -10 124
-44 190 -75 140 -66 198 -83 281 -83 70 0 94 17 94 68 0 42 -54 110 -110 138
-38 20 -60 23 -140 23 -52 -1 -138 -9 -190 -19z"/>
<path d="M694 1705 c-38 -31 -123 -93 -189 -139 -243 -169 -335 -281 -335
-409 0 -54 3 -62 32 -89 32 -30 35 -30 114 -26 71 4 88 8 134 38 97 62 181
187 245 364 32 87 85 279 85 305 0 20 -16 12 -86 -44z"/>
<path d="M2640 1697 c0 -7 19 -35 41 -62 134 -161 175 -253 320 -700 48 -149
77 -212 126 -273 77 -95 172 -97 236 -5 40 58 50 92 50 173 1 90 -20 158 -77
253 -100 168 -419 476 -612 592 -61 37 -84 43 -84 22z"/>
<path d="M2633 1492 c-1 -119 -16 -219 -59 -397 -25 -105 -31 -203 -14 -236 8
-13 21 -19 46 -19 49 0 123 74 154 156 30 77 34 263 6 364 -21 81 -102 250
-119 250 -9 0 -12 -32 -14 -118z"/>
<path d="M255 1499 c-22 -4 -69 -8 -105 -8 -67 -1 -90 -11 -90 -41 0 -46 77
-64 145 -35 37 15 115 75 115 88 0 8 -10 8 -65 -4z"/>
<path d="M660 1201 c-17 -34 -71 -122 -120 -196 -90 -136 -110 -181 -110 -245
0 -56 23 -80 76 -80 93 0 160 66 194 193 36 133 38 373 3 384 -7 3 -26 -23
-43 -56z"/>
<path d="M3310 1252 c0 -5 14 -28 30 -51 17 -23 59 -94 93 -158 93 -175 145
-216 202 -158 21 20 25 33 25 87 0 100 -17 118 -183 200 -56 27 -114 58 -128
69 -30 21 -39 23 -39 11z"/>
<path d="M2856 1068 c-3 -7 -7 -42 -10 -78 -4 -36 -24 -114 -47 -180 -119
-334 -122 -343 -127 -432 -4 -87 -4 -87 27 -119 30 -30 35 -31 83 -26 90 11
173 89 203 191 30 100 15 269 -41 464 -44 155 -76 220 -88 180z"/>
<path d="M430 1004 c-14 -8 -51 -26 -82 -39 -49 -21 -58 -29 -58 -50 0 -23 4
-25 45 -25 38 0 51 6 86 37 22 20 47 49 55 65 13 26 13 28 -3 27 -10 0 -29 -7
-43 -15z"/>
<path d="M788 883 c-3 -4 -8 -21 -12 -38 -4 -16 -23 -73 -44 -125 -32 -83 -37
-106 -37 -181 0 -106 14 -129 80 -129 108 0 130 126 63 360 -29 103 -41 130
-50 113z"/>
<path d="M2457 798 c-31 -83 -34 -106 -12 -115 23 -8 54 24 61 63 7 38 -3 124
-14 124 -4 0 -20 -33 -35 -72z"/>
<path d="M2680 805 c-19 -21 -94 -86 -166 -145 -161 -134 -261 -239 -270 -285
-11 -60 -4 -70 53 -73 111 -6 232 95 340 288 39 70 86 201 81 229 -3 21 -5 20
-38 -14z"/>
<path d="M3054 603 c3 -16 11 -68 17 -118 14 -110 23 -135 48 -135 30 0 51 38
51 93 0 55 -17 92 -67 148 -42 46 -58 50 -49 12z"/>
<path d="M957 463 c-10 -9 -8 -58 3 -87 14 -37 84 -110 139 -146 89 -56 281
-107 376 -98 43 4 39 7 -45 33 -74 22 -178 89 -275 176 -131 117 -176 145
-198 122z"/>
<path d="M2574 387 c-22 -24 -83 -75 -134 -114 -158 -116 -201 -180 -148 -217
13 -10 43 -16 73 -16 81 0 159 59 208 155 29 58 66 235 49 235 -5 0 -27 -20
-48 -43z"/>
<path d="M1909 215 c-174 -27 -253 -92 -186 -152 32 -30 56 -40 113 -48 118
-16 244 33 363 142 l65 58 -55 7 c-86 10 -207 7 -300 -7z"/>
</g>
</svg>
